# xmcd CD database file
#
# Track frame offsets:
#	150
#	20713
#	41831
#	65613
#	79537
#	97551
#	115617
#	138824
#	148440
#	164270
#	178087
#	194795
#	209396
#
# Disc length: 3069 seconds
#
# Revision: 0
# Processed by: cddbd v1.5PL3 Copyright (c) Steve Scherf et al.
# Submitted via: CDex 1.51
#
DISCID=b90bfb0d
DTITLE=Morgan Davis - Painkiller
DYEAR=2003
DGENRE=Blues
TTITLE0=Driving the Backroads
TTITLE1=Waffle House Blues
TTITLE2=Hello, Nova Scotia
TTITLE3=I'll Find My Way
TTITLE4=Gettin' Old
TTITLE5=I Don't Have Time
TTITLE6=Painkiller
TTITLE7=Po' Bob
TTITLE8=Tomorrow
TTITLE9=She's My Radiator
TTITLE10=We Need a Fire
TTITLE11=We Sure Know How To Live
TTITLE12=Rainin' Trains
EXTD=YEAR: 2003
EXTT0=
EXTT1=
EXTT2=
EXTT3=
EXTT4=
EXTT5=
EXTT6=
EXTT7=
EXTT8=
EXTT9=
EXTT10=
EXTT11=
EXTT12=
PLAYORDER=
